<svg xmlns="http://www.w3.org/2000/svg" xmlns:xlink="http://www.w3.org/1999/xlink" width="1080" zoomAndPan="magnify" viewBox="0 0 810 809.999993" height="1080" preserveAspectRatio="xMidYMid meet" version="1.0"><defs><clipPath id="188230f287"><path d="M 89.382812 150.878906 L 733 150.878906 L 733 401 L 89.382812 401 Z M 89.382812 150.878906 " clip-rule="nonzero"/></clipPath></defs><path fill="#eb3c62" d="M 432.589844 537.667969 C 425.757812 539.644531 418.242188 540.707031 411.105469 540.402344 L 340.351562 540.402344 C 331.09375 540.402344 322.058594 542.910156 314.011719 547.695312 C 288.960938 562.734375 280.382812 596.15625 294.804688 622.210938 C 309.230469 648.265625 341.339844 657.230469 366.390625 642.191406 C 374.515625 637.328125 381.042969 630.339844 385.75 621.984375 L 432.511719 537.667969 Z M 432.589844 537.667969 " fill-opacity="1" fill-rule="evenodd"/><path fill="#eb3c62" d="M 258.59375 570.105469 C 264.210938 544.960938 278.253906 523.386719 298.066406 510.171875 C 310.820312 501.664062 325.167969 497.183594 339.898438 497.183594 L 425.375 497.183594 C 435.320312 496.800781 444.886719 493.613281 453.539062 487.914062 C 462.117188 482.21875 469.40625 474.167969 474.566406 464.441406 L 529.378906 354.90625 C 521.558594 357.414062 513.4375 358.632812 505.390625 358.480469 L 257.148438 358.480469 C 246.445312 358.480469 236.046875 361.59375 226.710938 367.746094 C 198.015625 386.886719 188.144531 429.351562 204.695312 462.46875 L 258.59375 570.027344 Z M 258.59375 570.105469 " fill-opacity="1" fill-rule="evenodd"/><g clip-path="url(#188230f287)"><path fill="#ffaa4d" d="M 169.089844 400.863281 C 176.300781 371.621094 194.445312 346.554688 219.878906 331.285156 C 236.578125 321.257812 255.40625 316.167969 274.6875 316.167969 L 594.4375 316.167969 C 622.90625 316.699219 649.019531 301.050781 663.292969 275.378906 L 732.296875 150.878906 C 724.097656 153.234375 715.59375 154.601562 706.941406 154.980469 L 166.8125 154.980469 C 124.074219 154.980469 89.382812 191.140625 89.382812 235.574219 C 89.382812 250.3125 93.253906 264.667969 100.617188 277.355469 L 169.167969 400.863281 Z M 169.089844 400.863281 " fill-opacity="1" fill-rule="evenodd"/></g></svg>